<?xml version="1.0" standalone="no"?>
<!DOCTYPE svg PUBLIC "-//W3C//DTD SVG 20010904//EN"
 "http://www.w3.org/TR/2001/REC-SVG-20010904/DTD/svg10.dtd">
<svg version="1.0" xmlns="http://www.w3.org/2000/svg"
 width="700.000000pt" height="700.000000pt" viewBox="0 0 700.000000 700.000000"
 preserveAspectRatio="xMidYMid meet">
<metadata>
Created by potrace 1.14, written by Peter Selinger 2001-2017
</metadata>
<g transform="translate(0.000000,700.000000) scale(0.100000,-0.100000)"
fill="#000000" stroke="none">
<path d="M2645 6487 c-22 -27 -47 -57 -55 -66 -9 -9 -47 -54 -85 -101 -38 -47
-72 -87 -75 -90 -3 -3 -59 -70 -125 -150 -66 -80 -122 -147 -125 -150 -3 -3
-37 -43 -75 -90 -39 -47 -80 -96 -92 -110 -11 -14 -60 -72 -108 -130 -48 -58
-96 -116 -108 -130 -81 -95 -514 -617 -520 -627 -5 -8 90 -111 275 -295 l284
-283 325 0 325 0 361 -1442 c198 -794 360 -1443 358 -1443 -3 0 -1121 1784
-1152 1840 -8 14 -190 306 -406 650 l-392 625 -132 0 c-73 0 -133 -2 -133 -5
0 -6 54 -94 184 -302 311 -497 853 -1366 861 -1381 17 -30 576 -926 663 -1062
45 -71 86 -137 90 -145 6 -14 227 -369 301 -486 14 -22 112 -178 216 -347 105
-168 192 -306 195 -306 3 -1 23 29 45 65 63 104 74 122 179 290 55 87 119 191
144 229 25 39 53 84 62 100 10 17 273 440 585 940 312 501 701 1124 863 1385
163 261 371 596 464 744 92 147 166 271 164 275 -2 3 -140 6 -305 6 -166 -1
-301 1 -301 2 0 2 69 72 153 156 196 197 184 179 154 214 -20 22 -307 366
-691 828 -22 27 -55 65 -72 85 -16 19 -84 100 -149 180 -66 80 -124 150 -130
156 -5 6 -26 30 -45 54 -19 24 -97 117 -172 207 -120 143 -138 161 -138 136
-1 -15 -1 -498 -1 -1073 l0 -1045 -90 -355 c-49 -195 -91 -364 -94 -375 -2
-11 -43 -175 -90 -365 -48 -190 -88 -352 -90 -360 -2 -8 -36 -143 -75 -300
-40 -157 -73 -292 -75 -300 -2 -8 -20 -80 -40 -160 -20 -80 -38 -152 -40 -160
-35 -155 -210 -837 -216 -843 -5 -4 -7 -4 -5 -1 3 3 -2 29 -11 57 -8 28 -16
58 -18 66 -2 9 -15 63 -30 121 -14 58 -28 114 -30 125 -3 11 -21 83 -41 160
-19 77 -37 149 -40 160 -2 11 -20 83 -39 160 -20 77 -38 147 -40 155 -1 8 -28
116 -60 240 -31 124 -58 232 -60 240 -2 8 -44 179 -95 380 -50 201 -93 372
-95 380 -15 68 -259 1039 -265 1055 -7 19 -15 20 -373 20 l-367 0 -176 176
-176 176 182 219 c100 121 201 241 224 268 22 26 52 62 66 79 47 57 234 282
245 293 5 6 44 53 85 103 l75 93 5 -529 5 -528 113 -3 112 -3 1 48 c2 205 0
1645 -3 1648 -1 1 -21 -20 -43 -48z m2345 -1121 l432 -519 -176 -176 -176
-176 -265 0 -265 -1 0 705 c0 406 4 701 9 696 5 -6 203 -244 441 -529z m600
-1110 c0 -8 -1774 -2852 -1790 -2870 -5 -4 32 153 82 350 49 198 91 366 93
374 32 146 539 2146 545 2150 14 9 1070 5 1070 -4z"/>
</g>
</svg>
